<?xml version="1.0" encoding="utf-8"?><svg viewBox="0 0 640 640" xmlns="http://www.w3.org/2000/svg" xmlns:xlink="http://www.w3.org/1999/xlink"><style>:root>svg{display:none}:root>svg:target{display:block}</style><svg viewBox="0 0 25.59 16.41" id="behance" xmlns="http://www.w3.org/2000/svg"><path class="acls-1" d="M16.81 1.61h6.38v1.63h-6.38V1.61zm8.8 9.64H17.3c.09 2.02 1.07 2.76 2.83 2.76 1.27 0 2.29-.4 2.49-1.12h2.54c-.89 2.73-2.54 3.51-5.14 3.51-3.63 0-5.88-2.5-5.88-6.08a5.788 5.788 0 015.88-6.11c3.92 0 5.81 3.49 5.59 7.04zM17.3 8.89h5.15c-.29-1.61-.99-2.28-2.52-2.28a2.384 2.384 0 00-2.63 2.28zm-3.99 2.57c0 3.24-2.74 4.63-5.61 4.63H0V.02h7.48c3.03 0 5.08 1.08 5.08 4.06a3.5 3.5 0 01-2.17 3.33 3.9 3.9 0 012.92 4.05zM6.47 2.72H3.2v3.74h3.53a1.842 1.842 0 002.14-1.9c0-1.53-1.16-1.84-2.4-1.84zM7 8.85H3.2v4.39h3.73c1.38 0 2.59-.45 2.59-2.11C9.52 9.5 8.49 8.85 7 8.85z"/></svg><svg viewBox="0 0 71 100" id="branding-icon" xmlns="http://www.w3.org/2000/svg"><path d="M7.3 98.8c1.5-5 3.8-12.1 7-22.3 13.5-2.2 19.1 1.7 27.7-13.9-7 2.2-15.4-4-14.9-6.7s19.6 1.9 32.1-16.2c-15.8 3.5-20.8-4.3-18.8-5.4 4.7-2.7 18.6-1.1 26.1-8.5 3.8-3.8 5.6-13 4.1-16.3C68.7 5.5 57.3-.4 51 .1c-6.3.6-16.2 24.4-19.1 24.3-2.9-.2-3.5-10.7 1.6-20.5-5.4 2.4-15.3 10-18.3 16.5-5.8 12 .5 39.6-1.5 40.6S4.9 48.3 2.8 42.2C0 51.5-.1 61 8 73.6c-3.1 8.3-4.7 17.8-5 22.7-.1 3.9 3.6 4.7 4.3 2.5z"/></svg><svg viewBox="0 0 40 40" id="clock-icon" xmlns="http://www.w3.org/2000/svg"><path fill-rule="evenodd" fill="#FFF" d="M20 39.199C9.396 39.199.8 30.604.8 20 .8 9.396 9.396.799 20 .799S39.2 9.396 39.2 20c0 10.604-8.596 19.199-19.2 19.199zm0-36C10.736 3.199 3.2 10.736 3.2 20c0 9.263 7.536 16.837 16.8 16.837 9.264 0 16.8-7.574 16.8-16.837 0-9.264-7.536-16.801-16.8-16.801zm5.167 23.675l-5.94-5.94c-.018-.019-.025-.043-.042-.063A1.189 1.189 0 0118.8 20V8a1.2 1.2 0 112.4 0v11.512l5.664 5.665a1.2 1.2 0 11-1.697 1.697z"/></svg><svg viewBox="0 0 86 90" id="consulting-icon" xmlns="http://www.w3.org/2000/svg"><path d="M79.1 30.1C71.2 11.7 58.5-2.3 52 .3 41.1 4.8 58.5 26.1 4.8 48 .2 49.9-1 57.4.9 62c1.9 4.5 8.3 9 12.9 7.1.8-.3 3.8-1.3 3.8-1.3 3.3 4.5 6.8 1.8 8 4.6 1.5 3.4 4.7 10.8 5.8 13.3 1.1 2.5 3.6 4.8 5.4 4.2 1.8-.7 7.9-3 10.3-3.9 2.3-.9 2.9-3 2.2-4.6-.8-1.8-3.9-2.3-4.8-4.4-.9-2.1-3.8-8.7-4.7-10.8-1.2-2.8 1.3-5.2 4.8-5.5 24.5-2.5 29 12.6 37.4 9.2 6.3-2.7 5-21.3-2.9-39.8zM76.4 60c-1.4.6-11.1-7-17.2-21.3-6.2-14.3-5.4-27.4-3.9-28 1.4-.6 10.8 8.6 17 22.9 6 14.3 5.5 25.8 4.1 26.4z"/></svg><svg viewBox="0 0 41 38" id="cup-icon" xmlns="http://www.w3.org/2000/svg"><path fill-rule="evenodd" fill="#FFF" d="M38.261 11.193c-1.439 1.778-3.651 2.694-6.568 2.738-1.613 4.801-5.671 8.351-10.552 8.87v8.822h3.883c.694 0 1.256.567 1.256 1.267s-.562 1.266-1.256 1.266H14.869a1.26 1.26 0 01-1.256-1.266c0-.7.562-1.267 1.256-1.267h3.76V22.8c-4.874-.53-8.923-4.08-10.532-8.877-2.82-.081-4.968-.992-6.375-2.73C-.724 8.169.119 3.731.156 3.547a1.258 1.258 0 011.23-1.011h5.958V1.271c0-.7.562-1.266 1.256-1.266h22.593a1.26 1.26 0 011.256 1.266v1.265h6.148c.596 0 1.111.423 1.23 1.011.037.184.88 4.622-1.566 7.646zM2.51 5.069c-.056 1.152.055 3.167 1.168 4.532.816 1.003 2.114 1.566 3.816 1.731-.09-.65-.15-1.31-.15-1.987V5.069H2.51zm27.426-2.531H9.857v6.807c0 6.06 4.504 10.991 10.041 10.991 5.535 0 10.038-4.931 10.038-10.991V2.538zm7.537 2.531h-5.024v4.276c0 .682-.061 1.347-.151 2.001 1.797-.138 3.162-.705 4.007-1.745 1.113-1.365 1.225-3.379 1.168-4.532zM11.115 35.462h17.662a1.26 1.26 0 011.256 1.266c0 .7-.562 1.267-1.256 1.267H11.115a1.261 1.261 0 01-1.256-1.267c0-.7.562-1.266 1.256-1.266z"/></svg><svg viewBox="0 0 78 78" id="development-icon" xmlns="http://www.w3.org/2000/svg"><path d="M71.8 6.2C64.6-1 59.2.1 59.2.1L33.9 25.3 5 54.2 0 78l23.8-5.1L52.7 44 78 18.7c-.1.1 1-5.3-6.2-12.5zM22.4 70.1l-8.1 1.7c-.8-1.5-1.7-2.9-3.5-4.7-1.7-1.7-3.2-2.7-4.7-3.5l1.8-8.1 2.3-2.3s4.4.1 9.4 5.1 5.1 9.4 5.1 9.4l-2.3 2.4z"/></svg><svg viewBox="0 0 640 640" id="dribbble" xmlns="http://www.w3.org/2000/svg"><path d="M306.08 237.472c-43.456-77.248-89.952-140.256-93.344-144.896-70.112 33.152-122.432 97.76-138.784 175.584 6.592.128 111.424 1.376 232.128-30.688zm31.296 84.48c3.264-1.056 6.592-2.048 9.888-3.008-6.304-14.304-13.184-28.64-20.384-42.752-129.472 38.784-253.696 35.968-258.08 35.84-.096 2.688-.224 5.312-.224 8 0 64.608 24.416 123.552 64.512 168.064l-.16-.192s68.8-122.048 204.448-165.952zM165.472 518.208v-.128c-1.856-1.44-3.84-2.752-5.696-4.32 3.392 2.72 5.696 4.448 5.696 4.448zm94.304-442.304c-.224.064-.48.128-.48.128.192-.064.448-.064.448-.064l.032-.064zm226.272 55.424C441.76 92.352 383.68 68.576 320 68.576c-20.448 0-40.256 2.496-59.264 7.072 3.84 5.12 51.04 67.808 94.016 146.688 94.784-35.488 130.592-89.984 131.296-91.008zM320 614.4c-162.56 0-294.368-131.808-294.368-294.368C25.6 157.408 157.408 25.6 320 25.6c162.624 0 294.4 131.808 294.4 294.432C614.4 482.592 482.624 614.4 320 614.4zm42.752-253.248C215.2 412.576 166.464 515.968 165.472 518.08c42.688 33.312 96.192 53.312 154.496 53.312 34.816 0 68-7.072 98.144-19.872-3.712-22.048-18.336-99.072-53.728-190.944-.512.192-1.056.384-1.632.576zM374.08 259.84c5.888 11.936 11.456 24.128 16.736 36.448 1.888 4.32 3.648 8.704 5.44 12.992 86.816-10.944 172.32 7.616 175.136 8.192-.608-59.616-21.952-114.304-57.184-157.184-.576.736-40.928 58.976-140.128 99.552zm37.472 89.12c32.992 90.752 46.368 164.544 48.928 179.552 56.448-38.112 96.576-98.56 107.744-168.64-4.992-1.6-75.392-23.904-156.672-10.912z"/></svg><svg viewBox="0 0 100 56" id="eye-icon" xmlns="http://www.w3.org/2000/svg"><path d="M50 0C17.2 0 0 24.2 0 28c0 3.8 17.2 28 50 28s50-24.2 50-28c0-3.8-17.2-28-50-28zm0 49.5c-12.3 0-22.2-9.6-22.2-21.5S37.7 6.5 50 6.5 72.2 16.1 72.2 28 62.3 49.5 50 49.5zM50 28c-2-2.2 3.3-10.8 0-10.8-6.1 0-11.1 4.8-11.1 10.8 0 5.9 5 10.8 11.1 10.8S61.1 34 61.1 28c0-2.7-9.4 1.9-11.1 0z"/></svg><svg viewBox="0 0 512 512" id="facebook" xmlns="http://www.w3.org/2000/svg"><path d="M304 96h80V0h-80c-61.757 0-112 50.243-112 112v48h-64v96h64v256h96V256h80l16-96h-96v-48c0-8.673 7.327-16 16-16z"/></svg><svg viewBox="0 0 22 25.62" id="forrst-icon" xmlns="http://www.w3.org/2000/svg"><path class="jcls-1" d="M21.9 25.35a.589.589 0 01-.48.26h-8.85v-4.8l3.93-2.4a.8.8 0 000-1.6l-3.93 2.4v-2.8l2.36-1.2a.8.8 0 000-1.6l-2.36 1.2v-1.2a.794.794 0 00-.79-.8h-1.57a.792.792 0 00-.78.8v5.07l-3.15-1.07a.8.8 0 000 1.6l3.15 1.07v5.33H.58a.563.563 0 01-.48-.26.59.59 0 01-.05-.56L10.49.36a.58.58 0 01.53-.35.566.566 0 01.52.35l10.41 24.43a.59.59 0 01-.05.56z"/></svg><svg viewBox="0 0 38 38" id="friends-icon" xmlns="http://www.w3.org/2000/svg"><path fill-rule="evenodd" fill="#FFF" d="M35.995 32.055h-3.941c-.28-1.046-.499-1.827-1.223-2.372h4.794v-2.11a3.402 3.402 0 00-.549-.307 3.388 3.388 0 01-.219-.105l-7.587-4.137a2.379 2.379 0 01-1.23-1.885 2.378 2.378 0 01.899-2.064c2.049-1.61 2.738-5.159 2.738-7.017v-5.01c0-1.744-3.149-4.676-6.579-4.676-1.717 0-3.3.58-4.552 1.553-.931-.297-2.008-.298-2.986-.358C17.274 1.564 20.219 0 23.098 0c4.431 0 8.954 3.732 8.954 7.048v5.01c0 2.406-.866 6.698-3.645 8.882l7.588 4.138S38 25.902 38 27.082v2.969a2.006 2.006 0 01-2.005 2.004zM23.741 12.956v5.009c0 2.406-.755 6.699-3.534 8.883l7.477 4.137s2.005.825 2.005 2.004v3.007A2.006 2.006 0 0127.684 38H2.004A2.006 2.006 0 010 35.996v-3.007c0-1.112 2.004-2.004 2.004-2.004l7.67-4.156C6.866 24.58 5.94 20.154 5.94 17.965v-5.009c0-3.317 4.528-7.012 8.958-7.012 4.431 0 8.843 3.695 8.843 7.012zm-2.375 0c0-1.745-3.037-4.639-6.468-4.639-3.367 0-6.583 2.935-6.583 4.639v5.009c0 1.885.853 5.418 2.844 7.013.621.497.951 1.272.881 2.063a2.375 2.375 0 01-1.234 1.874l-7.67 4.155a2.11 2.11 0 01-.165.082c-.188.086-.426.23-.596.354v2.121h24.939V33.48a3.562 3.562 0 00-.549-.307 2.755 2.755 0 01-.219-.105l-7.476-4.137a2.378 2.378 0 01-1.23-1.885 2.378 2.378 0 01.899-2.064c2.049-1.61 2.627-5.159 2.627-7.017v-5.009z"/></svg><svg viewBox="0 0 640 640" id="google+" xmlns="http://www.w3.org/2000/svg"><path d="M63.648 178.848c0 47.808 15.968 82.304 47.424 102.56 25.792 16.64 55.68 19.136 71.232 19.136 3.776 0 6.816-.192 8.928-.32 0 0-4.928 32.128 18.88 63.872h-1.088c-41.248 0-175.776 8.608-175.776 119.264C33.248 595.872 156.8 601.6 181.6 601.6c1.952 0 3.104-.064 3.104-.064.256 0 2.016.064 5.056.064 15.904 0 57.024-1.984 95.2-20.576 49.536-24 74.656-65.888 74.656-124.32 0-56.448-38.272-90.048-66.208-114.624-17.056-15.008-31.808-27.936-31.808-40.512 0-12.8 10.784-22.432 24.384-34.624 22.048-19.68 42.848-47.744 42.848-100.8 0-46.624-6.048-77.952-43.328-97.824 3.872-1.984 17.632-3.424 24.416-4.384 20.192-2.752 49.728-5.888 49.728-22.368V38.4H212.48c-1.472.064-148.832 5.504-148.832 140.448zm237.568 288.416c2.816 44.992-35.68 78.176-93.504 82.368-58.72 4.32-107.04-22.112-109.856-67.072-1.376-21.632 8.128-42.752 26.72-59.616 18.848-17.056 44.736-27.616 72.896-29.696 3.328-.192 6.624-.384 9.92-.384 54.368.032 91.168 31.968 93.824 74.4zm-38.432-319.232c14.432 50.816-7.36 103.872-42.112 113.696-4 1.12-8.096 1.664-12.288 1.664-31.808 0-63.328-32.192-75.04-76.576-6.528-24.832-5.984-46.656 1.504-67.584 7.328-20.64 20.576-34.496 37.216-39.2 4-1.12 8.128-1.696 12.32-1.696 38.4 0 63.104 15.936 78.4 69.696zM512 256v-96h-64v96h-96v64h96v96h64v-96h96v-64h-96z"/></svg><svg viewBox="0 0 86 71.3" id="heart" xmlns="http://www.w3.org/2000/svg"><path d="M78.9 7.1C70.5-.6 57-.6 48.6 7.1L43 12.3l-5.7-5.2C29-.6 15.4-.6 7.1 7.1c-9.4 8.6-9.4 22.6 0 31.3l35.9 33 35.9-33c9.5-8.7 9.5-22.7 0-31.3zm-5.3 26.1L43 61.7 12.4 33.2c-3.1-2.8-4.3-6.6-4.3-10.5 0-3.9.7-7.2 3.8-10 2.7-2.5 6.4-3.9 10.3-3.9 3.9 0 7.6 2.4 10.3 4.9L43 22.8l10.5-9.1c2.7-2.5 6.4-4.9 10.3-4.9 3.9 0 7.6 1.4 10.3 3.9 3.1 2.8 3.8 6.1 3.8 10 0 3.9-1.2 7.6-4.3 10.5z"/></svg><svg viewBox="0 0 23 16" id="mail" xmlns="http://www.w3.org/2000/svg"><defs><style>.ncls-1{fill:#0eb493;fill-rule:evenodd}</style></defs><path id="nEnvelope" class="ncls-1" d="M1171.2 4253.47c.4 0 .36-.04.36.36v11.64c0 .4.04 1.09-.36 1.09h-18.68a1.493 1.493 0 01-1.08-1.09v-11.64c0-.4.68-.36 1.08-.36h18.32m.36-1.46h-18.68c-1.2 0-2.52.61-2.52 1.82v11.64a2.833 2.833 0 002.52 2.54h18.68c1.19 0 1.8-1.34 1.8-2.54v-11.64a1.605 1.605 0 00-1.8-1.82zm-9.7 10.98a.692.692 0 01-.47-.18l-10.78-8.73a.726.726 0 01-.07-1.02.706.706 0 011.01-.08l10.31 8.32 10.31-8.32a.706.706 0 011.01.08.726.726 0 01-.07 1.02l-10.78 8.73a.692.692 0 01-.47.18z" transform="translate(-1150 -4252)"/></svg><svg viewBox="0 0 33 33" id="rocket-icon" xmlns="http://www.w3.org/2000/svg"><path fill-rule="evenodd" fill="#FFF" d="M31.656 12.023c-.706 1.901-1.425 3.187-3.398 4.941-1.402 1.246-4.782 2.821-7.046 4.087-.831.465-1.714.942-2.212 1.251v5.16a.999.999 0 01-.35.759l-3.705 3.686a.997.997 0 01-.96.192 1.003 1.003 0 01-.664-.721l-1.217-5.147-2.26-2.506c-1.084-1.203-1.761-1.954-2.168-2.456l-5.967-1.364a1 1 0 01-.525-1.639l3.666-3.973a1 1 0 01.748-.337h5.563c.346-.622.754-1.436 1.181-2.288 1.105-2.205 2.358-4.861 3.617-6.331 1.512-1.763 3.131-2.927 5.098-3.661C26.44-.335 32.037.074 32.037.074a1 1 0 01.925.935c.017.264.374 6.493-1.306 11.014zm-.66-9.985c-1.741-.012-5.55.133-9.24 1.512-1.658.619-2.979 1.572-4.278 3.088-1.1 1.284-2.346 3.928-3.348 5.926-.591 1.18-1.102 2.199-1.542 2.916a.998.998 0 01-.852.476H6.048l-2.247 2.375 4.581 1.048c.217.05.409.17.549.339.213.244 2.991 3.325 4.83 5.363.112.125.192.277.231.44l.898 3.8L17 27.002v-5.226c0-.301.135-.585.368-.775.404-.331 1.327-.834 2.868-1.695 2.065-1.154 5.454-2.735 6.694-3.837 1.677-1.491 2.235-2.484 2.851-4.142 1.178-3.17 1.247-7.445 1.215-9.289zm-7.998 11.973A4.016 4.016 0 0118.987 10c0-2.212 1.8-4.011 4.011-4.011A4.015 4.015 0 0127.009 10a4.015 4.015 0 01-4.011 4.011zm0-6.013A2.005 2.005 0 0020.996 10c0 1.104.899 2.002 2.002 2.002A2.005 2.005 0 0025.001 10a2.005 2.005 0 00-2.003-2.002zM4.138 23.832c.512-.255 1.041-.487 1.616-.928l1.218 1.554c-.728.56-1.401.895-1.941 1.165C3.743 26.264 3.1 26.626 3 30c3.497-.127 3.893-.998 4.522-2.304.245-.508.523-1.085.968-1.692l1.483 1.347c-.367.61-.488.915-.706 1.367-.993 2.063-1.984 3.26-7.284 3.26L1 32l-.017-1.022c0-5.023 1.01-6.076 3.155-7.146z"/></svg><svg viewBox="0 0 18 13" id="search-arrow" xmlns="http://www.w3.org/2000/svg"><defs><style>.pcls-1{fill:#fff;fill-rule:evenodd}</style></defs><path class="pcls-1" d="M0 6.28v-.44h17.841v.44H0zm17.991-.15l-.3.31L11.744.31l.3-.31zm-.306 0l.311.3L12.049 13l-.311-.3z"/></svg><svg viewBox="0 0 512 512" id="twitter" xmlns="http://www.w3.org/2000/svg"><path d="M512 113.2c-18.8 8.4-39.1 14-60.3 16.5 21.7-13 38.3-33.6 46.2-58.1-20.3 12-42.8 20.8-66.7 25.5C412 76.7 384.7 64 354.5 64c-58 0-105 47-105 105 0 8.2.9 16.2 2.7 23.9-87.3-4.4-164.7-46.2-216.5-109.8-9 15.5-14.2 33.6-14.2 52.8 0 36.4 18.5 68.6 46.7 87.4-17.2-.5-33.4-5.3-47.6-13.1v1.3c0 50.9 36.2 93.4 84.3 103-8.8 2.4-18.1 3.7-27.7 3.7-6.8 0-13.3-.7-19.8-1.9 13.4 41.7 52.2 72.1 98.1 73-36 28.2-81.2 45-130.5 45-8.5 0-16.8-.5-25.1-1.5C46.5 462.7 101.7 480 161 480c193.2 0 298.9-160.1 298.9-298.9 0-4.6-.1-9.1-.3-13.6 20.5-14.7 38.3-33.2 52.4-54.3z"/></svg></svg>