<svg xmlns="http://www.w3.org/2000/svg" width="25.59" height="16.41" viewBox="0 0 25.59 16.41">
  <defs>
  </defs>
  <path id="behance" class="cls-1" d="M1355.03,4047.2h6.38v1.63h-6.38v-1.63Zm8.8,9.64h-8.31c0.09,2.02,1.07,2.76,2.83,2.76,1.27,0,2.29-.4,2.49-1.12h2.54c-0.89,2.73-2.54,3.51-5.14,3.51-3.63,0-5.88-2.5-5.88-6.08a5.788,5.788,0,0,1,5.88-6.11C1362.16,4049.8,1364.05,4053.29,1363.83,4056.84Zm-8.31-2.36h5.15c-0.29-1.61-.99-2.28-2.52-2.28A2.384,2.384,0,0,0,1355.52,4054.48Zm-3.99,2.57c0,3.24-2.74,4.63-5.61,4.63h-7.7v-16.07h7.48c3.03,0,5.08,1.08,5.08,4.06a3.5,3.5,0,0,1-2.17,3.33A3.9,3.9,0,0,1,1351.53,4057.05Zm-6.84-8.74h-3.27v3.74h3.53a1.842,1.842,0,0,0,2.14-1.9C1347.09,4048.62,1345.93,4048.31,1344.69,4048.31Zm0.53,6.13h-3.8v4.39h3.73c1.38,0,2.59-.45,2.59-2.11C1347.74,4055.09,1346.71,4054.44,1345.22,4054.44Z" transform="translate(-1338.22 -4045.59)"/>
</svg>
