<!-- Generated by IcoMoon.io -->
<svg version="1.1" xmlns="http://www.w3.org/2000/svg" width="640" height="640" viewBox="0 0 640 640">
<title></title>
<g id="dribble">
</g>
<path d="M306.080 237.472c-43.456-77.248-89.952-140.256-93.344-144.896-70.112 33.152-122.432 97.76-138.784 175.584 6.592 0.128 111.424 1.376 232.128-30.688zM337.376 321.952c3.264-1.056 6.592-2.048 9.888-3.008-6.304-14.304-13.184-28.64-20.384-42.752-129.472 38.784-253.696 35.968-258.080 35.84-0.096 2.688-0.224 5.312-0.224 8 0 64.608 24.416 123.552 64.512 168.064l-0.16-0.192c0 0 68.8-122.048 204.448-165.952zM165.472 518.208v-0.128c-1.856-1.44-3.84-2.752-5.696-4.32 3.392 2.72 5.696 4.448 5.696 4.448zM259.776 75.904c-0.224 0.064-0.48 0.128-0.48 0.128 0.192-0.064 0.448-0.064 0.448-0.064l0.032-0.064zM486.048 131.328c-44.288-38.976-102.368-62.752-166.048-62.752-20.448 0-40.256 2.496-59.264 7.072 3.84 5.12 51.040 67.808 94.016 146.688 94.784-35.488 130.592-89.984 131.296-91.008zM320 614.4c-162.56 0-294.368-131.808-294.368-294.368-0.032-162.624 131.776-294.432 294.368-294.432 162.624 0 294.4 131.808 294.4 294.432 0 162.56-131.776 294.368-294.4 294.368zM362.752 361.152c-147.552 51.424-196.288 154.816-197.28 156.928 42.688 33.312 96.192 53.312 154.496 53.312 34.816 0 68-7.072 98.144-19.872-3.712-22.048-18.336-99.072-53.728-190.944-0.512 0.192-1.056 0.384-1.632 0.576zM374.080 259.84c5.888 11.936 11.456 24.128 16.736 36.448 1.888 4.32 3.648 8.704 5.44 12.992 86.816-10.944 172.32 7.616 175.136 8.192-0.608-59.616-21.952-114.304-57.184-157.184-0.576 0.736-40.928 58.976-140.128 99.552zM411.552 348.96c32.992 90.752 46.368 164.544 48.928 179.552 56.448-38.112 96.576-98.56 107.744-168.64-4.992-1.6-75.392-23.904-156.672-10.912z"></path>
</svg>
