<svg xmlns="http://www.w3.org/2000/svg" width="22" height="25.62" viewBox="0 0 22 25.62">
  <path id="forrst" class="cls-1" d="M1362.12,4198.54a0.589,0.589,0,0,1-.48.26h-8.85V4194l3.93-2.4a0.8,0.8,0,0,0,0-1.6l-3.93,2.4v-2.8l2.36-1.2a0.8,0.8,0,0,0,0-1.6l-2.36,1.2v-1.2a0.794,0.794,0,0,0-.79-0.8h-1.57a0.792,0.792,0,0,0-.78.8v5.07l-3.15-1.07a0.8,0.8,0,0,0,0,1.6l3.15,1.07v5.33h-8.85a0.563,0.563,0,0,1-.48-0.26,0.59,0.59,0,0,1-.05-0.56l10.44-24.43a0.58,0.58,0,0,1,.53-0.35,0.566,0.566,0,0,1,.52.35l10.41,24.43A0.59,0.59,0,0,1,1362.12,4198.54Z" transform="translate(-1340.22 -4173.19)"/>
</svg>
