<!-- Generated by IcoMoon.io -->
<svg version="1.1" xmlns="http://www.w3.org/2000/svg" width="640" height="640" viewBox="0 0 640 640">
<title></title>
<g id="google+">
</g>
<path fill="#000" d="M63.648 178.848c0 47.808 15.968 82.304 47.424 102.56 25.792 16.64 55.68 19.136 71.232 19.136 3.776 0 6.816-0.192 8.928-0.32 0 0-4.928 32.128 18.88 63.872h-1.088c-41.248 0-175.776 8.608-175.776 119.264 0 112.512 123.552 118.24 148.352 118.24 1.952 0 3.104-0.064 3.104-0.064 0.256 0 2.016 0.064 5.056 0.064 15.904 0 57.024-1.984 95.2-20.576 49.536-24 74.656-65.888 74.656-124.32 0-56.448-38.272-90.048-66.208-114.624-17.056-15.008-31.808-27.936-31.808-40.512 0-12.8 10.784-22.432 24.384-34.624 22.048-19.68 42.848-47.744 42.848-100.8 0-46.624-6.048-77.952-43.328-97.824 3.872-1.984 17.632-3.424 24.416-4.384 20.192-2.752 49.728-5.888 49.728-22.368v-3.168h-147.168c-1.472 0.064-148.832 5.504-148.832 140.448zM301.216 467.264c2.816 44.992-35.68 78.176-93.504 82.368-58.72 4.32-107.040-22.112-109.856-67.072-1.376-21.632 8.128-42.752 26.72-59.616 18.848-17.056 44.736-27.616 72.896-29.696 3.328-0.192 6.624-0.384 9.92-0.384 54.368 0.032 91.168 31.968 93.824 74.4zM262.784 148.032c14.432 50.816-7.36 103.872-42.112 113.696-4 1.12-8.096 1.664-12.288 1.664-31.808 0-63.328-32.192-75.040-76.576-6.528-24.832-5.984-46.656 1.504-67.584 7.328-20.64 20.576-34.496 37.216-39.2 4-1.12 8.128-1.696 12.32-1.696 38.4 0 63.104 15.936 78.4 69.696zM512 256v-96h-64v96h-96v64h96v96h64v-96h96v-64h-96z"></path>
</svg>
