<svg xmlns="http://www.w3.org/2000/svg" width="23" height="16" viewBox="0 0 23 16">
  <defs>
    <style>
      .cls-1 {
        fill: #0eb493;
        fill-rule: evenodd;
      }
    </style>
  </defs>
  <path id="Envelope" class="cls-1" d="M1171.2,4253.47c0.4,0,.36-0.04.36,0.36v11.64c0,0.4.04,1.09-.36,1.09h-18.68a1.493,1.493,0,0,1-1.08-1.09v-11.64c0-.4.68-0.36,1.08-0.36h18.32m0.36-1.46h-18.68c-1.2,0-2.52.61-2.52,1.82v11.64a2.833,2.833,0,0,0,2.52,2.54h18.68c1.19,0,1.8-1.34,1.8-2.54v-11.64a1.605,1.605,0,0,0-1.8-1.82h0Zm-9.7,10.98a0.692,0.692,0,0,1-.47-0.18l-10.78-8.73a0.726,0.726,0,0,1-.07-1.02,0.706,0.706,0,0,1,1.01-.08l10.31,8.32,10.31-8.32a0.706,0.706,0,0,1,1.01.08,0.726,0.726,0,0,1-.07,1.02l-10.78,8.73A0.692,0.692,0,0,1,1161.5,4262.99Z" transform="translate(-1150 -4252)"/>
</svg>
